<svg width="24" height="24" viewBox="0 0 24 24" fill="none" xmlns="http://www.w3.org/2000/svg">
<path d="M12.31 8.31C11.2491 8.31 10.2317 8.73143 9.48157 9.48157C8.73143 10.2317 8.31 11.2491 8.31 12.31C8.31 13.3709 8.73143 14.3883 9.48157 15.1384C10.2317 15.8886 11.2491 16.31 12.31 16.31C13.3709 16.31 14.3883 15.8886 15.1384 15.1384C15.8886 14.3883 16.31 13.3709 16.31 12.31C16.31 11.2491 15.8886 10.2317 15.1384 9.48157C14.3883 8.73143 13.3709 8.31 12.31 8.31V8.31ZM12.31 18.31C10.7187 18.31 9.19258 17.6779 8.06736 16.5526C6.94214 15.4274 6.31 13.9013 6.31 12.31C6.31 10.7187 6.94214 9.19258 8.06736 8.06736C9.19258 6.94214 10.7187 6.31 12.31 6.31C13.9013 6.31 15.4274 6.94214 16.5526 8.06736C17.6779 9.19258 18.31 10.7187 18.31 12.31C18.31 13.9013 17.6779 15.4274 16.5526 16.5526C15.4274 17.6779 13.9013 18.31 12.31 18.31ZM20.31 9V4.31H15.62L12.31 1L9 4.31H4.31V9L1 12.31L4.31 15.62V20.31H9L12.31 23.62L15.62 20.31H20.31V15.62L23.62 12.31L20.31 9Z" fill="black"/>
</svg>
