<svg width="24" height="24" viewBox="0 0 24 24" fill="none" xmlns="http://www.w3.org/2000/svg">
<path d="M12 18C11.11 18 10.26 17.8 9.5 17.45C11.56 16.5 13 14.42 13 12C13 9.58 11.56 7.5 9.5 6.55C10.26 6.2 11.11 6 12 6C13.5913 6 15.1174 6.63214 16.2426 7.75736C17.3679 8.88258 18 10.4087 18 12C18 13.5913 17.3679 15.1174 16.2426 16.2426C15.1174 17.3679 13.5913 18 12 18ZM20 8.69V4H15.31L12 0.690002L8.69 4H4V8.69L0.690002 12L4 15.31V20H8.69L12 23.31L15.31 20H20V15.31L23.31 12L20 8.69Z" fill="black"/>
</svg>
