<svg width="253" height="253" viewBox="0 0 253 253" fill="none" xmlns="http://www.w3.org/2000/svg">
<path fill-rule="evenodd" clip-rule="evenodd" d="M126.5 253C196.364 253 253 196.364 253 126.5C253 56.636 196.364 0 126.5 0C56.636 0 0 56.636 0 126.5C0 196.364 56.636 253 126.5 253ZM126.5 235.183C186.524 235.183 235.183 186.524 235.183 126.5C235.183 66.476 186.524 17.8169 126.5 17.8169C66.476 17.8169 17.8169 66.476 17.8169 126.5C17.8169 186.524 66.476 235.183 126.5 235.183Z" fill="black"/>
<path d="M185.296 125.906L96.2113 177.339V74.4731L185.296 125.906Z" fill="black"/>
</svg>
